/* XPM */
static const char *adddialogicon_xpm[] = {
/* width height num_colors chars_per_pixel */
"    48    48      256            2",
/* colors */
"`` c #ffffff",
"`. c #e6e6e6",
"`# c #cacaca",
"`a c #c9c9c9",
"`b c #e2e2e2",
"`c c #e3e3e3",
"`d c #757575",
"`e c #1e1e1e",
"`f c #000000",
"`g c #181818",
"`h c #6c6c6c",
"`i c #dcdcdc",
"`j c #ececec",
"`k c #bebebe",
"`l c #eeeeee",
"`m c #8e8e8e",
"`n c #090909",
"`o c #050505",
"`p c #7f7f7f",
"`q c #fcfcfc",
"`r c #eaeaea",
"`s c #818181",
"`t c #292929",
"`u c #2c2c2c",
"`v c #858585",
"`w c #ededed",
"`x c #fefefe",
"`y c #666666",
"`z c #060606",
"`A c #5d5d5d",
"`B c #aaaaaa",
"`C c #d0d0d0",
"`D c #d1d1d1",
"`E c #afafaf",
"`F c #656565",
"`G c #0a0a0a",
"`H c #525252",
"`I c #fbfbfb",
"`J c #8d8d8d",
"`K c #0b0b0b",
"`L c #0e0e0e",
"`M c #969696",
"`N c #393939",
"`O c #dddddd",
"`P c #e5e5e5",
"`Q c #454545",
"`R c #6a6a6a",
"`S c #f7f7f7",
"`T c #505050",
"`U c #020202",
"`V c #4e4e4e",
"`W c #9d9d9d",
"`X c #d8d8d8",
"`Y c #9b9b9b",
"`Z c #4a4a4a",
"`0 c #010101",
"`1 c #5a5a5a",
"`2 c #fafafa",
"`3 c #cfcfcf",
"`4 c #030303",
"`5 c #404040",
"`6 c #e1e1e1",
"`7 c #878787",
"`8 c #efefef",
".` c #515151",
".. c #fdfdfd",
".# c #4d4d4d",
".a c #3c3c3c",
".b c #d7d7d7",
".c c #353535",
".d c #595959",
".e c #121212",
".f c #e9e9e9",
".g c #bfbfbf",
".h c #dbdbdb",
".i c #f3f3f3",
".j c #1d1d1d",
".k c #3d3d3d",
".l c #f9f9f9",
".m c #535353",
".n c #929292",
".o c #040404",
".p c #dedede",
".q c #080808",
".r c #424242",
".s c #383838",
".t c #0d0d0d",
".u c #b4b4b4",
".v c #9f9f9f",
".w c #717171",
".x c #070707",
".y c #e0e0e0",
".z c #d6d6d6",
".A c #7e7e7e",
".B c #434343",
".C c #2b2b2b",
".D c #202020",
".E c #252525",
".F c #7c7c7c",
".G c #161616",
".H c #616161",
".I c #545454",
".J c #232323",
".K c #8b8b8b",
".L c #101010",
".M c #1b1b1b",
".N c #373737",
".O c #272727",
".P c #747474",
".Q c #d5d5d5",
".R c #b6b6b6",
".S c #a8a8a8",
".T c #9e9e9e",
".U c #f5f5f5",
".V c #6f6f6f",
".W c #606060",
".X c #8f8f8f",
".Y c #888888",
".Z c #aeaeae",
".0 c #e8e8e8",
".1 c #bbbbbb",
".2 c #cdcdcd",
".3 c #cbcbcb",
".4 c #b8b8b8",
".5 c #ababab",
".6 c #1c1c1c",
".7 c #4b4b4b",
".8 c #f6f6f6",
"#` c #a4a4a4",
"#. c #f2f2f2",
"## c #b2b2b2",
"#a c #737373",
"#b c #c3c3c3",
"#c c #bdbdbd",
"#d c #b7b7b7",
"#e c #c5c5c5",
"#f c #111111",
"#g c #191919",
"#h c #f4f4f4",
"#i c #828282",
"#j c #0f0f0f",
"#k c #6d6d6d",
"#l c #e4e4e4",
"#m c #ebebeb",
"#n c #797979",
"#o c #c2c2c2",
"#p c #f8f8f8",
"#q c #141414",
"#r c #5b5b5b",
"#s c #1a1a1a",
"#t c #343434",
"#u c #5c5c5c",
"#v c #707070",
"#w c #c8c8c8",
"#x c #adadad",
"#y c #a3a3a3",
"#z c #414141",
"#A c #e7e7e7",
"#B c #959595",
"#C c #3e3e3e",
"#D c #585858",
"#E c #868686",
"#F c #6b6b6b",
"#G c #333333",
"#H c #f1f1f1",
"#I c #2e2e2e",
"#J c #3f3f3f",
"#K c #3b3b3b",
"#L c #909090",
"#M c #a1a1a1",
"#N c #313131",
"#O c #f0f0f0",
"#P c #bcbcbc",
"#Q c #9c9c9c",
"#R c #808080",
"#S c #131313",
"#T c #c0c0c0",
"#U c #2d2d2d",
"#V c #474747",
"#W c #242424",
"#X c #3a3a3a",
"#Y c #565656",
"#Z c #8c8c8c",
"#0 c #a5a5a5",
"#1 c #cecece",
"#2 c #dadada",
"#3 c #9a9a9a",
"#4 c #282828",
"#5 c #4c4c4c",
"#6 c #303030",
"#7 c #7b7b7b",
"#8 c #171717",
"a` c #363636",
"a. c #787878",
"a# c #939393",
"aa c #d2d2d2",
"ab c #000000",
"ac c #000000",
"ad c #000000",
"ae c #000000",
"af c #000000",
"ag c #000000",
"ah c #000000",
"ai c #000000",
"aj c #000000",
"ak c #000000",
"al c #000000",
"am c #000000",
"an c #000000",
"ao c #000000",
"ap c #000000",
"aq c #000000",
"ar c #000000",
"as c #000000",
"at c #000000",
"au c #000000",
"av c #000000",
"aw c #000000",
"ax c #000000",
"ay c #000000",
"az c #000000",
"aA c #000000",
"aB c #000000",
"aC c #000000",
"aD c #000000",
"aE c #000000",
"aF c #000000",
"aG c #000000",
"aH c #000000",
"aI c #000000",
"aJ c #000000",
"aK c #000000",
"aL c #000000",
"aM c #000000",
"aN c #000000",
"aO c #000000",
"aP c #000000",
"aQ c #000000",
"aR c #000000",
"aS c #000000",
"aT c #000000",
"aU c #000000",
"aV c #000000",
"aW c #000000",
"aX c #000000",
"aY c #000000",
"aZ c #000000",
"a0 c #000000",
"a1 c #000000",
"a2 c #000000",
"a3 c #000000",
"a4 c #000000",
"a5 c #000000",
"a6 c #000000",
"a7 c #000000",
"a8 c #000000",
/* pixels */
"````````````````````````````````````````````````````````````````````````````````````````````````",
"````````````````````````````````````````````````````````````````````````````````````````````````",
"````````````````````````````````````````````````````````````````````````````````````````````````",
"````````````````````````````````````````````````````````````````````````````````````````````````",
"````````````````````````````````````````````````````````````````````````````````````````````````",
"```````````````````````````````````````````````````````````````````````.`#`a`b``````````````````",
"`````````````````````````````````````````````````````````````````c`d`e`f`f`f`f`g`h`i````````````",
"`````````````````````````j`#`k`#`l`````````````````````````````m`n`f`f`f`f`f`f`f`f`o`p`q````````",
"```````````````````r`s`t`f`f`f`f`f`u`v`w```````````````````x`y`f`f`z`A`B`C`D`E`F`G`f`f`H`I``````",
"```````````````x`J`K`f`f`f`f`f`f`f`f`f`L`M`````````````````p`f`f`N`O`````````````P`Q`f`f`R``````",
"`````````````S`T`f`f`U`V`W`#`X`a`Y`Z`0`f`f`1`2```````````3`4`f`5`S`````6`7`7`8`````I.``f`f`k````",
"``````````...#`f`f.a.b```````````````D.c`f`f.d```````````H`f.e.f``````.g`f`f.h``````.i.j`f.k````",
"```````````v`f`f`A`I``````````````````.l.m`f`f.n```````l.o`f`s````````.g`f`f.h`````````M`f`f.p``",
"`````````6.q`f.r`q``````````````````````.l.s`f.t`r````.u`f`f`X````````.g`f`f.h`````````j`0`f.v``",
"````````.w`f.x.y``````````````````````````.z`4`f.A````.n`f.x`x``.B.C.C.D`f`f.E.C.C`1````.j`f.F``",
"```````x.G`f.H``````````````````````````````.I`f.J````.K`f.L````.M`f`f`f`f`f`f`f`f.N````.O`f.P``",
"``````.Q`f`f.R``````````````````````````````.S`f`f`b``.T`f`0.U```p.V.V.m`f`f.W.V.V.X```x`L`f.Y``",
"``````.Z`f`f.0``````````````````````````````.h`f`f.1``.2`f`f.R````````.g`f`f.h````````.3`f`f.4``",
"``````.T`f`f`q```````````````````````````````8`f`f.5``...6`f.7````````.g`f`f.h````````.W`f`L.8``",
"``````#``f`f#.```````````````````````````````P`f`f##`````7`f`f.5``````.g`f`f.h```````k`U`f#a````",
"``````#b`f`f.3``````````````````````````````#c`f`f`D`````S.E`f`n#d````.i`3`3.l````#e#f`f#g`8````",
"``````#h`z`f#i```````````````````````````````d`f.t`I```````D#j`f`U#k#l````````#m#n`o`f.x#o``````",
"````````.#`f.6#p``````````````````````````.i#q`f#r``````````.3#s`f`f`U#t#r#u`N.o`f`f.e#c````````",
"````````.1`f`f.A``````````````````````````#v`f`f#w````````````#m`F.o`f`f`f`f`f`f`U.d#l``````````",
"``````````.k`f`4#x``````````````````````#y`0`f#z``````````````````#A#B#u`5#C#D.X.y``````````````",
"````````.A`0`f`f.o.X`x```````````````q#E`U`f`f`f#F`q````````````````````````````````````````````",
"``````#v`f`f.6`g`f`f#G.S#.``````#H#y#I`f`f.j.E`f`f`1`x``````````````````````````````````````````",
"````.S`f`f#J`l`6#K`f`f`f.o.E#t.J`4`f`f`f.r#A.U.``f`f#L``````````````````````````````````````````",
"```2.6`f.C#h````..#M.C`f`f`f`f`f`f`f#N.S```````I.k`f`L#O````````````````````````````````````````",
"``.R`f`f#P`````````````D`4`f`f`f`f.3````````````.Q`f`f#Q````````````````````````````````````````",
"``#R`f#S`x````````````.Q`f`f`A`f`f#T``````````````#U`f`F````````````````````````````````````````",
"``#v`f.C``````````````#M`f`0#m`n`f.K``````````````#V`f.I````````````````````````````````````````",
"``.V`f.C```````````````h`f#W``#X`f#Y``````````````#V`f.m````````````````````````````````````````",
"``.V`f.C``````````````.N`f#D``.V`f.D``````````````#V`f.m````````````````````````````````````````",
"``.V`f.C`````````````2.q`f#Z``#0`f`f#m````````````#V`f.m````````````````````````````````````````",
"``.V`f.C````````````#1`f`f#T``#2`f`f.R````````````#V`f.m````````````````````````````````````````",
"``.V`f.C````````````#3`f`U#.````#f`f`s````````````#V`f.m````````````````````````````````````````",
"``.V`f.C`````````````F`f#4```````Q`f#5````````````#V`f.m````````````````````````````````````````",
"``.V`f.C````````````#6`f#u``````#7`f#8````````````#V`f.m````````````````````````````````````````",
"```I`S.l```````````S.o`f#X`l```S.``f`f`6```````````2`S`2````````````````````````````````````````",
"``````````````````.8#V`f`f.J#d#G`f`fa``j````````````````````````````````````````````````````````",
"````````````````````..a.`f`f`f`f`f.H#p``````````````````````````````````````````````````````````",
"`````````````````````````B`K`f.oa#``````````````````````````````````````````````````````````````",
"``````````````````````````aa.s#T````````````````````````````````````````````````````````````````",
"````````````````````````````````````````````````````````````````````````````````````````````````",
"````````````````````````````````````````````````````````````````````````````````````````````````",
"````````````````````````````````````````````````````````````````````````````````````````````````",
"````````````````````````````````````````````````````````````````````````````````````````````````"
};
