/* XPM */
static const char *detaildialogicon_xpm[] = {
/* width height num_colors chars_per_pixel */
"    40    40      256            2",
/* colors */
"`` c #ffffff",
"`. c #fdfdfd",
"`# c #bcbcbc",
"`a c #777777",
"`b c #494949",
"`c c #323232",
"`d c #313131",
"`e c #444444",
"`f c #6e6e6e",
"`g c #b0b0b0",
"`h c #f8f8f8",
"`i c #989898",
"`j c #1f1f1f",
"`k c #000000",
"`l c #131313",
"`m c #838383",
"`n c #f6f6f6",
"`o c #dfdfdf",
"`p c #373737",
"`q c #141414",
"`r c #4b4b4b",
"`s c #696969",
"`t c #6a6a6a",
"`u c #525252",
"`v c #1d1d1d",
"`w c #232323",
"`x c #cbcbcb",
"`y c #d3d3d3",
"`z c #171717",
"`A c #3c3c3c",
"`B c #b7b7b7",
"`C c #c8c8c8",
"`D c #515151",
"`E c #090909",
"`F c #e4e4e4",
"`G c #191919",
"`H c #040404",
"`I c #939393",
"`J c #b1b1b1",
"`K c #0f0f0f",
"`L c #424242",
"`M c #cecece",
"`N c #aaaaaa",
"`O c #898989",
"`P c #b2b2b2",
"`Q c #818181",
"`R c #2c2c2c",
"`S c #fcfcfc",
"`T c #535353",
"`U c #111111",
"`V c #f7f7f7",
"`W c #d5d5d5",
"`X c #a1a1a1",
"`Y c #acacac",
"`Z c #929292",
"`0 c #050505",
"`1 c #f3f3f3",
"`2 c #212121",
"`3 c #676767",
"`4 c #2f2f2f",
"`5 c #595959",
"`6 c #3d3d3d",
"`7 c #747474",
"`8 c #272727",
".` c #4f4f4f",
".. c #757575",
".# c #242424",
".a c #646464",
".b c #303030",
".c c #5a5a5a",
".d c #3a3a3a",
".e c #909090",
".f c #f4f4f4",
".g c #222222",
".h c #666666",
".i c #a4a4a4",
".j c #a8a8a8",
".k c #565656",
".l c #101010",
".m c #f5f5f5",
".n c #a6a6a6",
".o c #8e8e8e",
".p c #b6b6b6",
".q c #7d7d7d",
".r c #fefefe",
".s c #2a2a2a",
".t c #d4d4d4",
".u c #121212",
".v c #080808",
".w c #eaeaea",
".x c #5d5d5d",
".y c #060606",
".z c #9b9b9b",
".A c #b8b8b8",
".B c #292929",
".C c #d9d9d9",
".D c #f9f9f9",
".E c #454545",
".F c #434343",
".G c #c1c1c1",
".H c #d1d1d1",
".I c #070707",
".J c #606060",
".K c #dbdbdb",
".L c #1b1b1b",
".M c #555555",
".N c #737373",
".O c #5c5c5c",
".P c #252525",
".Q c #c5c5c5",
".R c #a5a5a5",
".S c #f2f2f2",
".T c #c9c9c9",
".U c #010101",
".V c #5b5b5b",
".W c #fafafa",
".X c #8f8f8f",
".Y c #0e0e0e",
".Z c #797979",
".0 c #ababab",
".1 c #161616",
".2 c #b4b4b4",
".3 c #636363",
".4 c #202020",
".5 c #bfbfbf",
".6 c #f0f0f0",
".7 c #a9a9a9",
".8 c #5e5e5e",
"#` c #e1e1e1",
"#. c #9d9d9d",
"## c #ebebeb",
"#a c #afafaf",
"#b c #030303",
"#c c #979797",
"#d c #c6c6c6",
"#e c #c7c7c7",
"#f c #151515",
"#g c #919191",
"#h c #4a4a4a",
"#i c #7f7f7f",
"#j c #282828",
"#k c #656565",
"#l c #b5b5b5",
"#m c #d8d8d8",
"#n c #999999",
"#o c #a3a3a3",
"#p c #8a8a8a",
"#q c #393939",
"#r c #e6e6e6",
"#s c #6c6c6c",
"#t c #fbfbfb",
"#u c #484848",
"#v c #353535",
"#w c #e3e3e3",
"#x c #717171",
"#y c #0d0d0d",
"#z c #e7e7e7",
"#A c #262626",
"#B c #d6d6d6",
"#C c #4c4c4c",
"#D c #000000",
"#E c #000000",
"#F c #000000",
"#G c #000000",
"#H c #000000",
"#I c #000000",
"#J c #000000",
"#K c #000000",
"#L c #000000",
"#M c #000000",
"#N c #000000",
"#O c #000000",
"#P c #000000",
"#Q c #000000",
"#R c #000000",
"#S c #000000",
"#T c #000000",
"#U c #000000",
"#V c #000000",
"#W c #000000",
"#X c #000000",
"#Y c #000000",
"#Z c #000000",
"#0 c #000000",
"#1 c #000000",
"#2 c #000000",
"#3 c #000000",
"#4 c #000000",
"#5 c #000000",
"#6 c #000000",
"#7 c #000000",
"#8 c #000000",
"a` c #000000",
"a. c #000000",
"a# c #000000",
"aa c #000000",
"ab c #000000",
"ac c #000000",
"ad c #000000",
"ae c #000000",
"af c #000000",
"ag c #000000",
"ah c #000000",
"ai c #000000",
"aj c #000000",
"ak c #000000",
"al c #000000",
"am c #000000",
"an c #000000",
"ao c #000000",
"ap c #000000",
"aq c #000000",
"ar c #000000",
"as c #000000",
"at c #000000",
"au c #000000",
"av c #000000",
"aw c #000000",
"ax c #000000",
"ay c #000000",
"az c #000000",
"aA c #000000",
"aB c #000000",
"aC c #000000",
"aD c #000000",
"aE c #000000",
"aF c #000000",
"aG c #000000",
"aH c #000000",
"aI c #000000",
"aJ c #000000",
"aK c #000000",
"aL c #000000",
"aM c #000000",
"aN c #000000",
"aO c #000000",
"aP c #000000",
"aQ c #000000",
"aR c #000000",
"aS c #000000",
"aT c #000000",
"aU c #000000",
"aV c #000000",
"aW c #000000",
"aX c #000000",
"aY c #000000",
"aZ c #000000",
"a0 c #000000",
"a1 c #000000",
"a2 c #000000",
"a3 c #000000",
"a4 c #000000",
"a5 c #000000",
"a6 c #000000",
"a7 c #000000",
"a8 c #000000",
/* pixels */
"````````````````````````````````````````````````````````````````````````````````",
"````````````````````````````````````````````````````````````````````````````````",
"```````````````````````````````.`#`a`b`c`d`e`f`g`h``````````````````````````````",
"```````````````````````````.`i`j`k`k`k`k`k`k`k`k`l`m`n``````````````````````````",
"`````````````````````````o`p`k`k`k`q`r`s`t`u`v`k`k`k`w`x````````````````````````",
"```````````````````````y`z`k`k`A`B`.```````````C`D`k`k`E`B``````````````````````",
"`````````````````````F`G`k`H`I`````````````````````J`K`k`E`x````````````````````",
"`````````````````````L`k`H`g`````````````````````````M`K`k`w`n``````````````````",
"```````````````````N`k`k`O`````````````````````````````P`k`k`Q``````````````````",
"```````````````````c`k`R`S```````````````````````````````T`k`U`V````````````````",
"`````````````````W`k`k`X`````````````````````````````````x`k`k`Y````````````````",
"`````````````````Z`k`0`1```````````````````````````````````2`k`s````````````````",
"`````````````````3`k`4`````````````````````````````````````5`k`6````````````````",
"`````````````````D`k`b`````````````````````````````````````7`k`8````````````````",
"````````````````.``k`b````````````````````````````````````..`k.#````````````````",
"````````````````.a`k.b````````````````````````````````````.c`k.d````````````````",
"````````````````.e`k`0.f``````````````````````````````````.g`k.h````````````````",
"`````````````````y`k`k.i`````````````````````````````````M`k`k.j````````````````",
"```````````````````4`k`4`.``````````````````````````````.k`k.l.m````````````````",
"``````````````````.n`k`k.o````````````````````````````.p`k`k.q``````````````````",
"``````````````````.r.s`k`0`B````````````````````````.t.u`k.v.w``````````````````",
"`````````````````V.x`k`k`k.y.z````````````````````.A.u`k`k`k.B.C````````````````",
"``````````````.D.E`k`k.B`l`k`k.F.G````````````.H`5`k`k.I`b`k`k`q`W``````````````",
"```````````````t`k`k.J`h.K.b`k`k`k.L.M.N...O.P`k`k`k`v.Q``.R.y`k`w.S````````````",
"````````````.T.U`k.V``````.W.X`G`k`k`k`k`k`k`k`k.Y.Z.S``````.0`k`k`a````````````",
"`````````````5`k.1.S``````````.W.2`L`k`k`k`k`v.j.f````````````.V`k`K`V``````````",
"`````````````U`k..````````````````.3`k.Y.4`k.1`````````````````C`k`k.5``````````",
"``````````.6`k`k.7`````````````````4`k.8`N`k`k#```````````````.W`k`k#.``````````",
"``````````##`k`k#a```````````````n`H`k`I`o`k`k`Y````````````````#b`k#c``````````",
"``````````##`k`k#a``````````````#d`k`k#e``#f`k`a````````````````#b`k#c``````````",
"``````````##`k`k#a``````````````#g`k`0`V``#h`k`L````````````````#b`k#c``````````",
"``````````##`k`k#a``````````````.O`k.b````#i`k`K.r``````````````#b`k#c``````````",
"``````````##`k`k#a``````````````#j`k#k````#l`k`k#m``````````````#b`k#c``````````",
"``````````##`k`k#a````````````.S.U`k#n````.w`k`k#o``````````````#b`k#c``````````",
"``````````##`k`k#a````````````.5`k`k`M```````j`k`f``````````````#b`k#c``````````",
"``````````##`k`k#a````````````#p`k.v.W``````.M`k#q``````````````#b`k#c``````````",
"``````````.D#a#a#r````````````.k`k.4`h``````#s`k`E#t`````````````J#a`o``````````",
"``````````````````````````````#u`k`k#v#w`S#x`k`k#y#z````````````````````````````",
"```````````````````````````````n.c`k`k`z`6`k`k#A#B``````````````````````````````",
"``````````````````````````````````.o#b`k`k`k#C.6````````````````````````````````"
};
