/* XPM */
static const char *editdialogicon_xpm[] = {
/* width height num_colors chars_per_pixel */
"    24    24      256            2",
/* colors */
"`` c #929292",
"`. c #0d0d0d",
"`# c #000000",
"`a c #232323",
"`b c #c9c9c9",
"`c c #ffffff",
"`d c #f3f3f3",
"`e c #a6a6a6",
"`f c #595959",
"`g c #b3b3b3",
"`h c #4b4b4b",
"`i c #cdcdcd",
"`j c #222222",
"`k c #dcdcdc",
"`l c #181818",
"`m c #919191",
"`n c #151515",
"`o c #7c7c7c",
"`p c #f4f4f4",
"`q c #b4b4b4",
"`r c #474747",
"`s c #1a1a1a",
"`t c #b9b9b9",
"`u c #c7c7c7",
"`v c #e9e9e9",
"`w c #6a6a6a",
"`x c #121212",
"`y c #484848",
"`z c #d1d1d1",
"`A c #909090",
"`B c #212121",
"`C c #f7f7f7",
"`D c #5e5e5e",
"`E c #1b1b1b",
"`F c #303030",
"`G c #d3d3d3",
"`H c #fefefe",
"`I c #fbfbfb",
"`J c #2b2b2b",
"`K c #858585",
"`L c #a0a0a0",
"`M c #141414",
"`N c #a8a8a8",
"`O c #bcbcbc",
"`P c #0c0c0c",
"`Q c #d0d0d0",
"`R c #e1e1e1",
"`S c #fcfcfc",
"`T c #959595",
"`U c #f2f2f2",
"`V c #808080",
"`W c #515151",
"`X c #e5e5e5",
"`Y c #2a2a2a",
"`Z c #e7e7e7",
"`0 c #060606",
"`1 c #838383",
"`2 c #343434",
"`3 c #fafafa",
"`4 c #d6d6d6",
"`5 c #8d8d8d",
"`6 c #3d3d3d",
"`7 c #dbdbdb",
"`8 c #f9f9f9",
".` c #828282",
".. c #3a3a3a",
".# c #696969",
".a c #282828",
".b c #cccccc",
".c c #f0f0f0",
".d c #898989",
".e c #252525",
".f c #c1c1c1",
".g c #bbbbbb",
".h c #3f3f3f",
".i c #5d5d5d",
".j c #1c1c1c",
".k c #4d4d4d",
".l c #2d2d2d",
".m c #cfcfcf",
".n c #acacac",
".o c #e2e2e2",
".p c #bfbfbf",
".q c #131313",
".r c #424242",
".s c #646464",
".t c #f1f1f1",
".u c #525252",
".v c #969696",
".w c #b2b2b2",
".x c #2f2f2f",
".y c #eeeeee",
".z c #949494",
".A c #292929",
".B c #ececec",
".C c #7f7f7f",
".D c #666666",
".E c #000000",
".F c #000000",
".G c #000000",
".H c #000000",
".I c #000000",
".J c #000000",
".K c #000000",
".L c #000000",
".M c #000000",
".N c #000000",
".O c #000000",
".P c #000000",
".Q c #000000",
".R c #000000",
".S c #000000",
".T c #000000",
".U c #000000",
".V c #000000",
".W c #000000",
".X c #000000",
".Y c #000000",
".Z c #000000",
".0 c #000000",
".1 c #000000",
".2 c #000000",
".3 c #000000",
".4 c #000000",
".5 c #000000",
".6 c #000000",
".7 c #000000",
".8 c #000000",
"#` c #000000",
"#. c #000000",
"## c #000000",
"#a c #000000",
"#b c #000000",
"#c c #000000",
"#d c #000000",
"#e c #000000",
"#f c #000000",
"#g c #000000",
"#h c #000000",
"#i c #000000",
"#j c #000000",
"#k c #000000",
"#l c #000000",
"#m c #000000",
"#n c #000000",
"#o c #000000",
"#p c #000000",
"#q c #000000",
"#r c #000000",
"#s c #000000",
"#t c #000000",
"#u c #000000",
"#v c #000000",
"#w c #000000",
"#x c #000000",
"#y c #000000",
"#z c #000000",
"#A c #000000",
"#B c #000000",
"#C c #000000",
"#D c #000000",
"#E c #000000",
"#F c #000000",
"#G c #000000",
"#H c #000000",
"#I c #000000",
"#J c #000000",
"#K c #000000",
"#L c #000000",
"#M c #000000",
"#N c #000000",
"#O c #000000",
"#P c #000000",
"#Q c #000000",
"#R c #000000",
"#S c #000000",
"#T c #000000",
"#U c #000000",
"#V c #000000",
"#W c #000000",
"#X c #000000",
"#Y c #000000",
"#Z c #000000",
"#0 c #000000",
"#1 c #000000",
"#2 c #000000",
"#3 c #000000",
"#4 c #000000",
"#5 c #000000",
"#6 c #000000",
"#7 c #000000",
"#8 c #000000",
"a` c #000000",
"a. c #000000",
"a# c #000000",
"aa c #000000",
"ab c #000000",
"ac c #000000",
"ad c #000000",
"ae c #000000",
"af c #000000",
"ag c #000000",
"ah c #000000",
"ai c #000000",
"aj c #000000",
"ak c #000000",
"al c #000000",
"am c #000000",
"an c #000000",
"ao c #000000",
"ap c #000000",
"aq c #000000",
"ar c #000000",
"as c #000000",
"at c #000000",
"au c #000000",
"av c #000000",
"aw c #000000",
"ax c #000000",
"ay c #000000",
"az c #000000",
"aA c #000000",
"aB c #000000",
"aC c #000000",
"aD c #000000",
"aE c #000000",
"aF c #000000",
"aG c #000000",
"aH c #000000",
"aI c #000000",
"aJ c #000000",
"aK c #000000",
"aL c #000000",
"aM c #000000",
"aN c #000000",
"aO c #000000",
"aP c #000000",
"aQ c #000000",
"aR c #000000",
"aS c #000000",
"aT c #000000",
"aU c #000000",
"aV c #000000",
"aW c #000000",
"aX c #000000",
"aY c #000000",
"aZ c #000000",
"a0 c #000000",
"a1 c #000000",
"a2 c #000000",
"a3 c #000000",
"a4 c #000000",
"a5 c #000000",
"a6 c #000000",
"a7 c #000000",
"a8 c #000000",
/* pixels */
"```.`#`#`#`#`#`#`#`#`#`#`#`#`a`b`c`c`c`c`c`c`c`c",
"`.`d`c`c`c`.`d`c`c`d`.`c`#`c`e`f`c`c`c`c`c`c`c`c",
"`#`c`c`c`c```.`#`#`.```c`#`c`g`h`c`c`c`c`c`c`c`c",
"`#`c`c`c`c`c`c`c`c`c`c`c`#`c`i`j`k`c`c`c`c`c`c`c",
"`#`c`l`#`#`l`c`l`#`#`l`c`#`c`c`m`n`o`p`q`r`s`t`c",
"`#`c`c`c`c`c`c`c`c`c`c`c`#```u`c`v`w`x`y`z`A`B`C",
"`#`c`l`#`#`#`#`l`c`l`l`c`#`D`E`F`G`c`H`c`c`I`J`K",
"`#`c`c`c`c`c`c`c`c`c`c`c`#`c`c`L`M`N`c`c`c`c`O`P",
"`#`c`m`P`#`#`P`m`c`l`l`c`#`c`c`c`Q`M`R`c`c`S`T`P",
"`#`c`P`U`c`c`U`.`c`c`c`c`#`c`c`c`c`V`W`c`X`Y`j`t",
"`#`c`#`c`c`c`c`#`c`l`l`c`#`c`c`c`c`Z`0`p`1`2`3`c",
"`#`c`#`c`c`c`c`#`c`c`c`c`#`c`c`c`c`c`s`4`5`6`c`c",
"`#`c`#`c`c`c`c`#`c`l`l`c`#`c`c`c`c`c`s`7`5`6`c`c",
"`#`c`#`c`c`c`c`#`c`c`c`c`#`c`c`c`c`Z`.`8.`..`3`c",
"`#`c`#`c`c`c`c`#`c`l`l`c`#`c`c`c`c.`.#`c`X.a.a.b",
"`#`c`P`U`c`c`U`.`c`c`c`c`#`c`c`c`Q`B.c`c`c`3.d.e",
"`#`c`m`.`#`#`.`m`c`l`l`c`#`c`c`L`B.f`c`c`c`c.g.h",
"`#`c`c`c`c`c`c`c`c`c`c`c`#.i.j.k`Z`c`8`c`c`I.l.m",
"`#`c`l`#`l`c`l`#`#`#`l`c`#.n.o`c.p...q.r`b`A.s`c",
"`#`c`c`c`c`c`c`c`c`c`c`c`#`c.t.u`x.v`S.w.x`r.y`c",
"`#`#`#`#`#`#`#`#`#`#`#`#`#`c.z.A.B`c`c`c`c`c`c`c",
"`#`c`c`c`c`c`c`c`c`c`c`c`#`c.C`h`c`c`c`c`c`c`c`c",
"`.`d`c`c`c`c`c`c`c`c`c`c`#`Z.D`f`c`c`c`c`c`c`c`c",
"```.`#`#`#`#`#`#`#`#`#`#`#`#`a`b`c`c`c`c`c`c`c`c"
};
