/* XPM */
static const char *icon_xpm[] = {
/* width height num_colors chars_per_pixel */
"24 24 256 2",
/* colors */
"`` c #ffffff",
"`. c #929292",
"`# c #0d0d0d",
"`a c #000000",
"`b c #060606",
"`c c #424242",
"`d c #e5e5e5",
"`e c #f3f3f3",
"`f c #434343",
"`g c #7a7a7a",
"`h c #fcfcfc",
"`i c #888888",
"`j c #464646",
"`k c #191919",
"`l c #181818",
"`m c #070707",
"`n c #f1f1f1",
"`o c #fbfbfb",
"`p c #828282",
"`q c #171717",
"`r c #e6e6e6",
"`s c #1b1b1b",
"`t c #878787",
"`u c #080808",
"`v c #7c7c7c",
"`w c #040404",
"`x c #050505",
"`y c #f2f2f2",
"`z c #020202",
"`A c #d9d9d9",
"`B c #404040",
"`C c #6d6d6d",
"`D c #414141",
"`E c #5b5b5b",
"`F c #eeeeee",
"`G c #797979",
"`H c #dedede",
"`I c #3e3e3e",
"`J c #e1e1e1",
"`K c #000000",
"`L c #000000",
"`M c #000000",
"`N c #000000",
"`O c #000000",
"`P c #000000",
"`Q c #000000",
"`R c #000000",
"`S c #000000",
"`T c #000000",
"`U c #000000",
"`V c #000000",
"`W c #000000",
"`X c #000000",
"`Y c #000000",
"`Z c #000000",
"`0 c #000000",
"`1 c #000000",
"`2 c #000000",
"`3 c #000000",
"`4 c #000000",
"`5 c #000000",
"`6 c #000000",
"`7 c #000000",
"`8 c #000000",
".` c #000000",
".. c #000000",
".# c #000000",
".a c #000000",
".b c #000000",
".c c #000000",
".d c #000000",
".e c #000000",
".f c #000000",
".g c #000000",
".h c #000000",
".i c #000000",
".j c #000000",
".k c #000000",
".l c #000000",
".m c #000000",
".n c #000000",
".o c #000000",
".p c #000000",
".q c #000000",
".r c #000000",
".s c #000000",
".t c #000000",
".u c #000000",
".v c #000000",
".w c #000000",
".x c #000000",
".y c #000000",
".z c #000000",
".A c #000000",
".B c #000000",
".C c #000000",
".D c #000000",
".E c #000000",
".F c #000000",
".G c #000000",
".H c #000000",
".I c #000000",
".J c #000000",
".K c #000000",
".L c #000000",
".M c #000000",
".N c #000000",
".O c #000000",
".P c #000000",
".Q c #000000",
".R c #000000",
".S c #000000",
".T c #000000",
".U c #000000",
".V c #000000",
".W c #000000",
".X c #000000",
".Y c #000000",
".Z c #000000",
".0 c #000000",
".1 c #000000",
".2 c #000000",
".3 c #000000",
".4 c #000000",
".5 c #000000",
".6 c #000000",
".7 c #000000",
".8 c #000000",
"#` c #000000",
"#. c #000000",
"## c #000000",
"#a c #000000",
"#b c #000000",
"#c c #000000",
"#d c #000000",
"#e c #000000",
"#f c #000000",
"#g c #000000",
"#h c #000000",
"#i c #000000",
"#j c #000000",
"#k c #000000",
"#l c #000000",
"#m c #000000",
"#n c #000000",
"#o c #000000",
"#p c #000000",
"#q c #000000",
"#r c #000000",
"#s c #000000",
"#t c #000000",
"#u c #000000",
"#v c #000000",
"#w c #000000",
"#x c #000000",
"#y c #000000",
"#z c #000000",
"#A c #000000",
"#B c #000000",
"#C c #000000",
"#D c #000000",
"#E c #000000",
"#F c #000000",
"#G c #000000",
"#H c #000000",
"#I c #000000",
"#J c #000000",
"#K c #000000",
"#L c #000000",
"#M c #000000",
"#N c #000000",
"#O c #000000",
"#P c #000000",
"#Q c #000000",
"#R c #000000",
"#S c #000000",
"#T c #000000",
"#U c #000000",
"#V c #000000",
"#W c #000000",
"#X c #000000",
"#Y c #000000",
"#Z c #000000",
"#0 c #000000",
"#1 c #000000",
"#2 c #000000",
"#3 c #000000",
"#4 c #000000",
"#5 c #000000",
"#6 c #000000",
"#7 c #000000",
"#8 c #000000",
"a` c #000000",
"a. c #000000",
"a# c #000000",
"aa c #000000",
"ab c #000000",
"ac c #000000",
"ad c #000000",
"ae c #000000",
"af c #000000",
"ag c #000000",
"ah c #000000",
"ai c #000000",
"aj c #000000",
"ak c #000000",
"al c #000000",
"am c #000000",
"an c #000000",
"ao c #000000",
"ap c #000000",
"aq c #000000",
"ar c #000000",
"as c #000000",
"at c #000000",
"au c #000000",
"av c #000000",
"aw c #000000",
"ax c #000000",
"ay c #000000",
"az c #000000",
"aA c #000000",
"aB c #000000",
"aC c #000000",
"aD c #000000",
"aE c #000000",
"aF c #000000",
"aG c #000000",
"aH c #000000",
"aI c #000000",
"aJ c #000000",
"aK c #000000",
"aL c #000000",
"aM c #000000",
"aN c #000000",
"aO c #000000",
"aP c #000000",
"aQ c #000000",
"aR c #000000",
"aS c #000000",
"aT c #000000",
"aU c #000000",
"aV c #000000",
"aW c #000000",
"aX c #000000",
"aY c #000000",
"aZ c #000000",
"a0 c #000000",
"a1 c #000000",
"a2 c #000000",
"a3 c #000000",
"a4 c #000000",
"a5 c #000000",
"a6 c #000000",
"a7 c #000000",
"a8 c #000000",
/* pixels */
"`````````.`#`a`a`a`a`a`a`a`a`a`a`a`a`a`a`a`b`c`d",
"`````````#`e```````````````````````````f`g`h`i`j",
"`````````a`````k`````l`a`a`a`a`a`a`l```m`n```o`b",
"`````````a```p`a`k`````````````````````a```````a",
"`````````a```q`r`````l`a`a`a`l`````````a```````a",
"`````````a```.`s`.`````````````````````a```````a",
"`````````a`````r`l```l`a`a`a`l`````````a```````a",
"`````````a```k`a`i`````````````````````a`````e`#",
"`````````a`````k`````l`a`a`a`a`a`a`l```a`a`a`#`.",
"`````````a`````````````````````````````a````````",
"`````````a`````````````````````````````a````````",
"`````````a```l`a`a`a`a`a`a`l`````k`````a````````",
"`````````a`````````````````````t`a`k```a````````",
"`````````a`````````l`a`a`a`l```l`r`````a````````",
"`````````a`````````````````````.`s`.```a````````",
"`````````a`````````l`a`a`a`l`````r`l```a````````",
"`````````a`````````````````````k`a`i```a````````",
"`````````a```l`a`a`a`a`a`a`l`````k`````a````````",
"`````````a`````````````````````````````a````````",
"`.`#`a`a`a`a`a`a`a`a`a`a`a`a`u`v```````a````````",
"`#`e`````````````````````````e`w`n`````a````````",
"`x`y```````````````````````````z`A```n`m````````",
"`B`C`n`````````````````````````D`E`F`G`j````````",
"`H`D`b`a`a`a`a`a`a`a`a`a`a`a`a`a`a`a`I`J````````"
};
